<?xml version="1.0" encoding="utf-8"?>
<!-- Generator: Adobe Illustrator 24.3.0, SVG Export Plug-In . SVG Version: 6.00 Build 0)  -->
<svg version="1.1" id="Layer_1" xmlns="http://www.w3.org/2000/svg" xmlns:xlink="http://www.w3.org/1999/xlink" x="0px" y="0px"
	 viewBox="0 0 42.7 3.4" style="enable-background:new 0 0 42.7 3.4;" xml:space="preserve">
<style type="text/css">
	.st0{fill:#FFFFFF;}
</style>
<g>
	<path class="st0" d="M2.7,2c0,0.2-0.1,0.3-0.2,0.4C2.3,2.5,2.2,2.6,2,2.6c-0.2,0-0.4-0.1-0.5-0.2C1.4,2.2,1.3,2,1.3,1.8
		s0.1-0.4,0.2-0.6C1.6,1.1,1.8,1,2,1c0.2,0,0.3,0.1,0.4,0.2c0.1,0.1,0.2,0.2,0.2,0.4l-0.4,0c0-0.2-0.1-0.3-0.2-0.3
		c-0.2,0-0.3,0.1-0.3,0.4c0,0.2,0,0.3,0.1,0.4C1.9,2.2,2,2.2,2,2.2c0.1,0,0.2-0.1,0.2-0.3L2.7,2z"/>
	<path class="st0" d="M3.3,2.5H2.9V2.1h0.5V2.5z"/>
	<path class="st0" d="M5.3,2.5L4.8,0.9v1.6H4.4v-2h0.7l0.4,1.2l0.4-1.2h0.7v2H6.2V0.9L5.7,2.5H5.3z"/>
	<path class="st0" d="M8.3,2.5H7.9c0-0.1,0-0.1,0-0.2C7.8,2.4,7.7,2.5,7.6,2.5c-0.1,0-0.2,0.1-0.3,0.1c-0.1,0-0.3,0-0.3-0.1
		S6.9,2.3,6.9,2.2c0-0.1,0-0.2,0.1-0.3s0.1-0.1,0.2-0.2s0.3-0.1,0.6-0.1V1.5c0-0.1-0.1-0.2-0.2-0.2c-0.2,0-0.2,0.1-0.3,0.2L7,1.5
		c0-0.2,0.1-0.3,0.2-0.4S7.5,1,7.6,1c0.1,0,0.2,0,0.3,0c0.1,0,0.2,0.1,0.2,0.1c0.1,0,0.1,0.1,0.1,0.1s0,0.1,0,0.3v0.7
		C8.3,2.4,8.3,2.5,8.3,2.5z M7.8,1.8C7.5,1.9,7.4,2,7.4,2.1c0,0.1,0,0.1,0,0.1s0.1,0.1,0.1,0.1c0.1,0,0.1,0,0.2-0.1
		C7.8,2.1,7.8,2.1,7.8,2V1.8z"/>
	<path class="st0" d="M8.6,2.5V1.1h1v0.3H9.1v1.2H8.6z"/>
	<path class="st0" d="M11.1,2.5h-0.4c0-0.1,0-0.1,0-0.2c-0.1,0.1-0.1,0.2-0.2,0.2c-0.1,0-0.2,0.1-0.3,0.1c-0.1,0-0.3,0-0.3-0.1
		S9.7,2.3,9.7,2.2c0-0.1,0-0.2,0.1-0.3S9.9,1.8,10,1.7s0.3-0.1,0.6-0.1V1.5c0-0.1-0.1-0.2-0.2-0.2c-0.2,0-0.2,0.1-0.3,0.2l-0.4,0
		c0-0.2,0.1-0.3,0.2-0.4S10.3,1,10.4,1c0.1,0,0.2,0,0.3,0c0.1,0,0.2,0.1,0.2,0.1C11,1.2,11,1.3,11,1.3s0,0.1,0,0.3v0.7
		C11.1,2.4,11.1,2.5,11.1,2.5z M10.6,1.8c-0.3,0-0.5,0.1-0.5,0.3c0,0.1,0,0.1,0,0.1s0.1,0.1,0.1,0.1c0.1,0,0.1,0,0.2-0.1
		c0.1-0.1,0.1-0.1,0.1-0.2V1.8z"/>
	<path class="st0" d="M11.2,2.5l0.5-1.5h0.5l0.4,1.5h-0.5l-0.3-1.1l-0.4,1.1H11.2z"/>
	<path class="st0" d="M14.1,2.5h-0.4c0-0.1,0-0.1,0-0.2c-0.1,0.1-0.1,0.2-0.2,0.2c-0.1,0-0.2,0.1-0.3,0.1c-0.1,0-0.3,0-0.3-0.1
		s-0.1-0.2-0.1-0.3c0-0.1,0-0.2,0.1-0.3s0.1-0.1,0.2-0.2s0.3-0.1,0.6-0.1V1.5c0-0.1-0.1-0.2-0.2-0.2c-0.2,0-0.2,0.1-0.3,0.2l-0.4,0
		c0-0.2,0.1-0.3,0.2-0.4S13.3,1,13.4,1c0.1,0,0.2,0,0.3,0c0.1,0,0.2,0.1,0.2,0.1C14,1.2,14,1.3,14,1.3s0,0.1,0,0.3v0.7
		C14,2.4,14.1,2.5,14.1,2.5z M13.6,1.8c-0.3,0-0.5,0.1-0.5,0.3c0,0.1,0,0.1,0,0.1s0.1,0.1,0.1,0.1c0.1,0,0.1,0,0.2-0.1
		c0.1-0.1,0.1-0.1,0.1-0.2V1.8z"/>
	<path class="st0" d="M14.8,2.1v0.4L14.5,3h-0.2l0.2-0.5h-0.2V2.1H14.8z"/>
	<path class="st0" d="M17.5,0.5v2H17V1.7h-0.6v0.8h-0.5v-2h0.5v0.8H17V0.5H17.5z"/>
	<path class="st0" d="M18.5,1c0.2,0,0.4,0.1,0.5,0.2c0.1,0.1,0.2,0.3,0.2,0.6c0,0.2-0.1,0.4-0.2,0.5c-0.1,0.1-0.3,0.2-0.5,0.2
		c-0.2,0-0.4-0.1-0.5-0.2c-0.1-0.1-0.2-0.3-0.2-0.6c0-0.2,0-0.3,0.1-0.4c0.1-0.1,0.1-0.2,0.2-0.3S18.3,1,18.5,1z M18.5,1.3
		c-0.1,0-0.1,0-0.2,0.1c0,0.1-0.1,0.2-0.1,0.4c0,0.2,0,0.3,0.1,0.4s0.1,0.1,0.2,0.1c0.1,0,0.1,0,0.2-0.1s0.1-0.2,0.1-0.4
		c0-0.2,0-0.3-0.1-0.4C18.6,1.3,18.6,1.3,18.5,1.3z"/>
	<path class="st0" d="M19.5,2.5V1.1h0.8c0.1,0,0.2,0,0.2,0c0.1,0,0.1,0.1,0.2,0.1c0,0.1,0.1,0.1,0.1,0.2c0,0.2-0.1,0.3-0.3,0.3
		c0.2,0.1,0.4,0.2,0.4,0.4c0,0.1,0,0.2-0.1,0.3c-0.1,0.1-0.2,0.1-0.4,0.1H19.5z M19.9,1.7h0.3c0.1,0,0.2-0.1,0.2-0.2
		c0-0.1-0.1-0.2-0.2-0.2h-0.3V1.7z M19.9,2.2h0.3c0.1,0,0.1,0,0.1,0c0,0,0-0.1,0-0.1c0-0.1,0-0.1,0-0.1c0,0-0.1-0.1-0.2-0.1h-0.3
		V2.2z"/>
	<path class="st0" d="M21.7,1c0.2,0,0.4,0.1,0.5,0.2c0.1,0.1,0.2,0.3,0.2,0.6c0,0.2-0.1,0.4-0.2,0.5c-0.1,0.1-0.3,0.2-0.5,0.2
		c-0.2,0-0.4-0.1-0.5-0.2C21.1,2.2,21,2,21,1.8c0-0.2,0-0.3,0.1-0.4c0.1-0.1,0.1-0.2,0.2-0.3S21.6,1,21.7,1z M21.7,1.3
		c-0.1,0-0.1,0-0.2,0.1c0,0.1-0.1,0.2-0.1,0.4c0,0.2,0,0.3,0.1,0.4s0.1,0.1,0.2,0.1c0.1,0,0.1,0,0.2-0.1S22,2,22,1.8
		c0-0.2,0-0.3-0.1-0.4C21.9,1.3,21.8,1.3,21.7,1.3z"/>
	<path class="st0" d="M24,2c0,0.2-0.1,0.3-0.2,0.4c-0.1,0.1-0.3,0.2-0.5,0.2c-0.2,0-0.4-0.1-0.5-0.2c-0.1-0.1-0.2-0.3-0.2-0.6
		s0.1-0.4,0.2-0.6C23,1.1,23.2,1,23.4,1c0.2,0,0.3,0.1,0.4,0.2C23.9,1.3,24,1.4,24,1.6l-0.4,0c0-0.2-0.1-0.3-0.2-0.3
		c-0.2,0-0.3,0.1-0.3,0.4c0,0.2,0,0.3,0.1,0.4c0,0.1,0.1,0.1,0.2,0.1c0.1,0,0.2-0.1,0.2-0.3L24,2z"/>
	<path class="st0" d="M25.6,1.9h-1c0,0,0,0,0,0.1c0,0.1,0,0.2,0.1,0.2c0.1,0.1,0.1,0.1,0.2,0.1c0.1,0,0.2-0.1,0.3-0.2l0.4,0
		c-0.1,0.3-0.3,0.5-0.7,0.5c-0.1,0-0.3,0-0.4-0.1c-0.1-0.1-0.2-0.1-0.3-0.3c-0.1-0.1-0.1-0.2-0.1-0.4c0-0.2,0.1-0.4,0.2-0.6
		C24.5,1.1,24.7,1,24.9,1c0.2,0,0.4,0.1,0.5,0.2C25.5,1.4,25.6,1.6,25.6,1.9z M24.6,1.6h0.5c0-0.2-0.1-0.3-0.3-0.3
		C24.7,1.3,24.7,1.4,24.6,1.6z"/>
	<path class="st0" d="M25.6,2.5l0.5-1.5h0.5l0.4,1.5h-0.5l-0.3-1.1L26,2.5H25.6z"/>
	<path class="st0" d="M27.7,2.4v0.2h-0.4V1.1h0.4v0.6c0,0.1,0,0.2,0,0.3c0.1-0.1,0.1-0.2,0.2-0.3l0.3-0.4V1.1h0.4v1.5h-0.4V2
		c0-0.1,0-0.2,0-0.4C28.1,1.8,28,1.9,28,2L27.7,2.4z"/>
	<path class="st0" d="M28.9,2.5V1.1h0.4v1.2h0.4V1.1h0.4v1.2h0.2v0.7h-0.3l0-0.3H28.9z"/>
	<path class="st0" d="M30.6,2.5V1.1H31v0.5h0.3c0.2,0,0.3,0,0.4,0.1s0.1,0.2,0.1,0.3c0,0.2,0,0.3-0.1,0.4c-0.1,0.1-0.2,0.1-0.4,0.1
		H30.6z M31,2.2h0.3c0.1,0,0.1,0,0.2,0c0,0,0-0.1,0-0.1c0-0.1-0.1-0.2-0.2-0.2H31V2.2z"/>
	<path class="st0" d="M33.1,1.6l0.5,1h-0.5l-0.3-0.7l-0.2,0.2v0.4h-0.4V1.1h0.4v0.4c0,0.1,0,0.1,0,0.3c0,0,0.1-0.1,0.1-0.2l0.4-0.5
		h0.4L33.1,1.6z"/>
	<path class="st0" d="M34.2,2.4v0.2h-0.4V1.1h0.4v0.6c0,0.1,0,0.2,0,0.3c0.1-0.1,0.1-0.2,0.2-0.3l0.3-0.4V1.1h0.4v1.5h-0.4V2
		c0-0.1,0-0.2,0-0.4c-0.1,0.1-0.1,0.2-0.2,0.3L34.2,2.4z"/>
	<path class="st0" d="M35.9,2.4v0.2h-0.4V1.1h0.4v0.6c0,0.1,0,0.2,0,0.3c0.1-0.1,0.1-0.2,0.2-0.3l0.3-0.4V1.1h0.4v1.5h-0.4V2
		c0-0.1,0-0.2,0-0.4c-0.1,0.1-0.1,0.2-0.2,0.3L35.9,2.4z M35.6,0.4h0.2c0,0.1,0.1,0.2,0.2,0.2c0.1,0,0.2-0.1,0.2-0.2h0.2
		c0,0.1-0.1,0.2-0.2,0.3c-0.1,0.1-0.2,0.1-0.3,0.1c-0.1,0-0.2,0-0.3-0.1C35.7,0.6,35.7,0.5,35.6,0.4z"/>
	<path class="st0" d="M37.9,3v-2h0.4v0.2C38.4,1.1,38.5,1,38.7,1c0.2,0,0.3,0.1,0.4,0.2c0.1,0.1,0.2,0.3,0.2,0.6
		c0,0.3-0.1,0.5-0.2,0.6c-0.1,0.1-0.2,0.2-0.4,0.2c-0.2,0-0.3-0.1-0.4-0.2V3H37.9z M38.3,1.9c0,0.1,0,0.2,0,0.2c0,0,0,0.1,0.1,0.1
		c0,0,0.1,0,0.1,0c0.1,0,0.1,0,0.2-0.1c0-0.1,0.1-0.2,0.1-0.4c0-0.3-0.1-0.4-0.2-0.4c-0.1,0-0.1,0-0.2,0.1c0,0.1-0.1,0.1-0.1,0.3
		V1.9z"/>
	<path class="st0" d="M39.5,1.6h0.7v0.3h-0.7V1.6z"/>
	<path class="st0" d="M40.4,2.5V1.1h0.4v0.5h0.5V1.1h0.4v1.5h-0.4V1.9h-0.5v0.6H40.4z"/>
</g>
</svg>
