<?xml version="1.0" encoding="UTF-8"?>
<!DOCTYPE svg PUBLIC "-//W3C//DTD SVG 1.1//EN" "http://www.w3.org/Graphics/SVG/1.1/DTD/svg11.dtd">
<!-- Creator: CorelDRAW X7 -->
<svg xmlns="http://www.w3.org/2000/svg" xml:space="preserve" width="24.1624mm" height="2.1661mm" version="1.1" style="shape-rendering:geometricPrecision; text-rendering:geometricPrecision; image-rendering:optimizeQuality; fill-rule:evenodd; clip-rule:evenodd"
viewBox="0 0 379 34"
 xmlns:xlink="http://www.w3.org/1999/xlink">
 <defs>
  <style type="text/css">
   <![CDATA[
    .str0 {stroke:#FEFEFE;stroke-width:3.14074}
    .fil0 {fill:#00582E}
    .fil1 {fill:#FEFEFE;fill-rule:nonzero}
   ]]>
  </style>
 </defs>
 <g id="Слой_x0020_1">
  <metadata id="CorelCorpID_0Corel-Layer"/>
  <rect class="fil0 str0" x="2" y="2" width="376.298" height="30.8744" rx="11" ry="5"/>
  <path class="fil1" d="M25 21c0,-2 0,-3 -2,-3l0 0c2,-1 2,-2 2,-4 0,-3 -2,-4 -4,-4 -4,0 -5,2 -5,5l4 0 0 -1c0,-1 0,-1 0,-1 1,0 1,1 1,2 0,1 0,2 -1,2l-1 0 0 2c2,0 2,1 2,2 0,2 0,2 -1,2 0,0 -1,0 -1,-1l0 -1 -3 0 0 1c0,3 2,4 5,4 3,0 4,-2 4,-5zm2 -10l0 15 4 0 0 -15 -4 0zm0 -4l0 3 4 0 0 -3 -4 0zm12 4l0 15 6 0c3,0 4,-2 4,-5 0,-2 -1,-3 -2,-3l0 0c1,-1 2,-2 2,-4 0,-2 -1,-3 -4,-3l-6 0zm4 12l0 -4 1 0c1,0 1,1 1,2 0,2 0,2 -1,2l-1 0zm0 -6l0 -4 1 0c1,0 1,1 1,2 0,1 0,2 -1,2l-1 0zm7 -2l0 7c0,1 1,4 5,4 4,0 5,-3 5,-4l0 -3 -4 0 0 3c0,0 0,1 -1,1 -1,0 -1,-1 -1,-1l0 -8c0,0 0,-1 1,-1 1,0 1,1 1,1l0 2 4 0 0 -1c0,-2 -1,-5 -5,-5 -4,0 -5,3 -5,5zm12 -4l0 15 4 0 0 -15 -4 0zm0 -4l0 3 4 0 0 -3 -4 0zm10 9l2 10 3 0 2 -10 0 2 0 8 4 0 0 -15 -5 0 -2 9 0 0 -2 -9 -5 0 0 15 3 0 0 -8 0 -2zm23 10l0 -11c0,-3 -1,-5 -5,-5 -3,0 -5,2 -5,4l0 1 4 0 0 -1c0,0 0,-1 1,-1 1,0 1,1 1,1 0,2 -2,2 -3,3 -2,1 -3,2 -3,4 0,3 0,5 3,5 1,0 2,-1 3,-2l0 0 0 2 4 0zm-4 -8l0 4c0,1 0,1 -1,1 -1,0 -1,0 -1,-1l0 -2c0,0 0,-1 1,-1l1 -1zm17 -7l0 5 -2 0 0 -5 -4 0 0 15 4 0 0 -7 2 0 0 7 4 0 0 -15 -4 0zm6 4l0 7c0,1 1,4 5,4 4,0 5,-3 5,-4l0 -2 -4 0 0 2c0,0 0,1 -1,1 -1,0 -1,-1 -1,-1l0 -3 6 0 0 -4c0,-2 -1,-5 -5,-5 -4,0 -5,3 -5,5zm4 1l0 -2c0,0 0,-1 1,-1 1,0 1,1 1,1l0 2 -2 0zm8 -1l0 7c0,1 1,4 5,4 4,0 5,-3 5,-4l0 -7c0,-2 -1,-5 -5,-5 -4,0 -5,3 -5,5zm4 7l0 -8c0,0 0,-1 1,-1 1,0 1,1 1,1l0 8c0,0 0,1 -1,1 -1,0 -1,-1 -1,-1zm12 0l0 -8c0,0 0,-1 0,-1 1,0 1,1 1,1l0 8c0,0 0,1 -1,1 0,0 0,-1 0,-1zm5 -7c0,-2 -1,-4 -4,-4 -1,0 -2,0 -2,1l0 0c0,-2 0,-3 2,-3 3,0 4,-1 4,-3l-3 0c0,0 0,0 -1,0 -3,0 -5,2 -5,5l0 11c0,1 0,4 4,4 4,0 5,-3 5,-4l0 -7zm5 3l-3 8 4 0 1 -5 0 0 1 5 5 0 -4 -8 4 -7 -5 0 -1 4 0 0 -1 -4 -4 0 3 7zm9 -7l0 15 4 0 0 -15 -4 0zm0 -4l0 3 4 0 0 -3 -4 0zm7 4c0,0 0,9 0,11l-1 0 0 6 3 0 0 -2 5 0 0 2 4 0 0 -6 -1 0 0 -11 -10 0zm3 11c1,-2 1,-8 1,-8l2 0 0 8 -3 0zm15 -11l0 5 -2 0 0 -5 -4 0 0 15 4 0 0 -7 2 0 0 7 4 0 0 -15 -4 0zm9 6l0 -6 -4 0 0 15 4 0 3 -9 -1 3 0 6 4 0 0 -15 -4 0 -2 8 0 -2zm12 -1l2 10 3 0 2 -10 0 2 0 8 4 0 0 -15 -5 0 -2 9 -1 0 -2 -9 -5 0 0 15 4 0 0 -8 0 -2zm16 1l0 -6 -3 0 0 15 4 0 2 -9 0 3 0 6 3 0 0 -15 -4 0 -2 8 0 -2zm14 9l13 0 0 2 4 0 0 -6 -1 0 0 -11 -4 0 0 11 -2 0 0 -11 -4 0 0 11 -2 0 0 -11 -4 0 0 15zm18 -11l0 7c0,1 1,4 5,4 4,0 5,-3 5,-4l0 -2 -4 0 0 2c0,0 0,1 -1,1 -1,0 -1,-1 -1,-1l0 -3 6 0 0 -4c0,-2 -1,-5 -5,-5 -4,0 -5,3 -5,5zm4 1l0 -2c0,0 0,-1 1,-1 1,0 1,1 1,1l0 2 -2 0zm17 -5l-9 0 0 15 4 0 0 -12 1 0 0 12 4 0 0 -15zm3 0c0,7 0,11 0,11 0,1 0,1 -1,1 0,0 0,0 -1,0l0 2c1,1 1,1 2,1 1,0 3,-1 3,-2 1,-1 1,-3 1,-10l2 0 0 12 4 0 0 -15 -10 0zm12 4l0 7c0,1 0,4 4,4 4,0 5,-3 5,-4l0 -2 -4 0 0 2c0,0 0,1 -1,1 0,0 0,-1 0,-1l0 -3 5 0 0 -4c0,-2 -1,-5 -5,-5 -4,0 -4,3 -4,5zm4 1l0 -2c0,0 0,-1 0,-1 1,0 1,1 1,1l0 2 -1 0zm13 -5l0 5 -2 0 0 -5 -4 0 0 15 4 0 0 -7 2 0 0 7 4 0 0 -15 -4 0zm12 0l0 5 -2 0 0 -5 -4 0 0 15 4 0 0 -7 2 0 0 7 4 0 0 -15 -4 0zm15 15l0 -15 -5 0c-3,0 -4,1 -4,4l0 0c0,1 0,4 2,4l0 0c-1,0 -2,1 -2,3l0 1c0,1 0,2 -1,3l4 0c1,-1 1,-2 1,-3l0 -1c0,-1 0,-3 1,-3l0 7 4 0zm-4 -9l-1 0c0,0 0,-1 0,-1l0 -2c0,-1 0,-1 0,-1l1 0 0 4zm10 -1l2 10 3 0 2 -10 0 2 0 8 4 0 0 -15 -5 0 -2 9 0 0 -3 -9 -5 0 0 15 4 0 0 -8 0 -2zm17 1l0 -6 -4 0 0 15 4 0 2 -9 0 3 0 6 4 0 0 -15 -4 0 -3 8 1 -2z"/>
 </g>
</svg>
