<?xml version="1.0" encoding="UTF-8"?>
<!DOCTYPE svg PUBLIC "-//W3C//DTD SVG 1.1//EN" "http://www.w3.org/Graphics/SVG/1.1/DTD/svg11.dtd">
<!-- Creator: CorelDRAW X7 -->
<svg xmlns="http://www.w3.org/2000/svg" xml:space="preserve" width="13.7688mm" height="13.1986mm" version="1.1" style="shape-rendering:geometricPrecision; text-rendering:geometricPrecision; image-rendering:optimizeQuality; fill-rule:evenodd; clip-rule:evenodd"
viewBox="0 0 121 116"
 xmlns:xlink="http://www.w3.org/1999/xlink">
 <defs>
  <style type="text/css">
   <![CDATA[
    .str1 {stroke:#FEFEFE;stroke-width:1.75214}
    .str0 {stroke:#FEFEFE;stroke-width:2.19017;stroke-linecap:round;stroke-linejoin:round}
    .fil0 {fill:none;fill-rule:nonzero}
    .fil2 {fill:#C02222}
    .fil1 {fill:#C02222;fill-rule:nonzero}
   ]]>
  </style>
 </defs>
 <g id="Слой_x0020_1">
  <metadata id="CorelCorpID_0Corel-Layer"/>
  <g>
   <path class="fil0 str0" d="M16 1l-5 0 0 15 5 0 0 -4 2 -2 0 0 3 6 5 0 -4 -10 4 -5 -5 0 -5 7 0 0 0 -7zm22 0l-3 7 -3 -7 -5 0 5 11c0,1 0,2 -2,2 0,0 -1,0 -1,0l0 2c0,0 1,0 2,0 3,0 4,0 5,-3l6 -12 -4 0zm10 3l1 0c2,0 3,0 3,2 0,1 -1,1 -3,1l-1 0 0 -3zm-5 12l5 0 0 -6c1,0 2,0 2,0 4,0 7,-1 7,-5 0,-3 -3,-4 -6,-4l-8 0 0 15zm16 -15l0 4c0,4 2,6 7,6 0,0 1,-1 2,-1l0 6 5 0 0 -15 -5 0 0 6c0,1 -1,1 -2,1 -1,0 -2,-1 -2,-2l0 -5 -5 0zm16 15l4 0 1 -3 4 0 1 3 5 0 -4 -15 -7 0 -4 15zm7 -12l0 0 1 6 -3 0 2 -6zm8 0l4 0 0 12 5 0 0 -12 5 0 0 -3 -14 0 0 3zm14 12l4 0 1 -3 5 0 0 3 6 0 -5 -15 -6 0 -5 15zm8 -12l0 0 1 6 -3 0 2 -6zm-11 31l0 -3 -14 0 0 3 14 0zm-90 4l4 0 0 -12 0 0 3 12 3 0 4 -11 0 0 0 11 5 0 0 -15 -7 0 -3 8 0 0 -2 -8 -7 0 0 15zm42 0l0 -15 -8 0c-3,0 -6,1 -6,4 0,2 1,3 3,4l-4 7 5 0 3 -6 2 0 0 6 5 0zm-5 -12l0 3 -1 0c-2,0 -3,0 -3,-1 0,-2 1,-2 3,-2l1 0zm17 6c0,2 -1,4 -3,4 -2,0 -2,-2 -2,-6 0,-2 0,-5 2,-5 2,0 2,2 2,3l5 0c0,-3 -2,-5 -7,-5 -6,0 -8,4 -8,7 0,4 2,8 8,8 4,0 7,-2 7,-5l-4 -1zm5 -2c0,4 2,8 8,8 5,0 7,-4 7,-8 0,-3 -2,-7 -7,-7 -6,0 -8,4 -8,7zm5 0c0,-2 0,-5 3,-5 2,0 2,3 2,5 0,3 0,6 -2,6 -3,0 -3,-3 -3,-6zm-43 -3l2 0 -2 3 2 0 3 -4 0 -3 -5 0 0 4zm-8 34l0 -15 -7 0c-4,0 -7,1 -7,4 0,2 2,3 3,4l-3 7 5 0 3 -6 1 0 0 6 5 0zm-5 -12l0 3 -1 0c-2,0 -3,0 -3,-2 0,-1 2,-1 3,-1l1 0zm17 6c0,2 0,3 -2,3 -2,0 -2,-1 -2,-4l3 0 0 -2 -3 0c0,-2 0,-4 2,-4 2,0 2,2 2,3l5 0c0,-3 -2,-6 -7,-6 -6,0 -8,5 -8,8 0,4 2,8 8,8 4,0 7,-2 7,-5l-5 -1zm7 -9l0 4c0,3 2,5 6,5 1,0 2,0 3,0l0 6 5 0 0 -15 -5 0 0 6c-1,0 -1,0 -2,0 -2,0 -2,-1 -2,-2l0 -4 -5 0zm21 0l-5 0 0 15 5 0 0 -6 4 0 0 6 5 0 0 -15 -5 0 0 6 -4 0 0 -6zm11 7c0,4 2,8 8,8 5,0 7,-4 7,-8 0,-4 -2,-8 -7,-8 -6,0 -8,4 -8,8zm5 0c0,-3 0,-5 3,-5 2,0 2,2 2,5 0,3 0,5 -2,5 -3,0 -3,-2 -3,-5zm17 -7l-5 0 0 15 5 0 0 -15zm-7 -2l3 0 0 -2 -3 0 0 2zm5 0l4 0 0 -2 -4 0 0 2zm-84 40l5 0 0 -13 4 0 0 13 5 0 0 -15 -14 0 0 15zm16 -8c0,4 1,8 7,8 6,0 8,-4 8,-8 0,-4 -2,-8 -8,-8 -6,0 -7,4 -7,8zm5 0c0,-3 0,-5 2,-5 2,0 3,2 3,5 0,3 -1,5 -3,5 -2,0 -2,-2 -2,-5zm17 -5l1 0c1,0 3,1 3,2 0,2 -2,2 -3,2l-1 0 0 -4zm-5 13l5 0 0 -6c0,0 1,0 2,0 4,0 7,-2 7,-5 0,-3 -3,-4 -7,-4l-7 0 0 15zm14 -8c0,4 2,8 8,8 6,0 8,-4 8,-8 0,-4 -2,-8 -8,-8 -6,0 -8,4 -8,8zm6 0c0,-3 0,-5 2,-5 2,0 2,2 2,5 0,3 0,5 -2,5 -2,0 -2,-2 -2,-5zm26 -7l-13 0 0 5c0,4 0,5 -1,7l-2 0 0 6 5 0 0 -3 8 0 0 3 4 0 0 -6 -1 0 0 -12zm-5 12l-5 0c1,-2 2,-4 2,-6l0 -4 3 0 0 10zm8 -12l0 15 5 0 4 -9 0 0 0 9 5 0 0 -15 -5 0 -4 8 0 0 0 -8 -5 0z"/>
   <path id="1" class="fil1" d="M16 1l-5 0 0 15 5 0 0 -4 2 -2 0 0 3 6 5 0 -4 -10 4 -5 -5 0 -5 7 0 0 0 -7zm22 0l-3 7 -3 -7 -5 0 5 11c0,1 0,2 -2,2 0,0 -1,0 -1,0l0 2c0,0 1,0 2,0 3,0 4,0 5,-3l6 -12 -4 0zm10 3l1 0c2,0 3,0 3,2 0,1 -1,1 -3,1l-1 0 0 -3zm-5 12l5 0 0 -6c1,0 2,0 2,0 4,0 7,-1 7,-5 0,-3 -3,-4 -6,-4l-8 0 0 15zm16 -15l0 4c0,4 2,6 7,6 0,0 1,-1 2,-1l0 6 5 0 0 -15 -5 0 0 6c0,1 -1,1 -2,1 -1,0 -2,-1 -2,-2l0 -5 -5 0zm16 15l4 0 1 -3 4 0 1 3 5 0 -4 -15 -7 0 -4 15zm7 -12l0 0 1 6 -3 0 2 -6zm8 0l4 0 0 12 5 0 0 -12 5 0 0 -3 -14 0 0 3zm14 12l4 0 1 -3 5 0 0 3 6 0 -5 -15 -6 0 -5 15zm8 -12l0 0 1 6 -3 0 2 -6zm-11 31l0 -3 -14 0 0 3 14 0zm-90 4l4 0 0 -12 0 0 3 12 3 0 4 -11 0 0 0 11 5 0 0 -15 -7 0 -3 8 0 0 -2 -8 -7 0 0 15zm42 0l0 -15 -8 0c-3,0 -6,1 -6,4 0,2 1,3 3,4l-4 7 5 0 3 -6 2 0 0 6 5 0zm-5 -12l0 3 -1 0c-2,0 -3,0 -3,-1 0,-2 1,-2 3,-2l1 0zm17 6c0,2 -1,4 -3,4 -2,0 -2,-2 -2,-6 0,-2 0,-5 2,-5 2,0 2,2 2,3l5 0c0,-3 -2,-5 -7,-5 -6,0 -8,4 -8,7 0,4 2,8 8,8 4,0 7,-2 7,-5l-4 -1zm5 -2c0,4 2,8 8,8 5,0 7,-4 7,-8 0,-3 -2,-7 -7,-7 -6,0 -8,4 -8,7zm5 0c0,-2 0,-5 3,-5 2,0 2,3 2,5 0,3 0,6 -2,6 -3,0 -3,-3 -3,-6zm-43 -3l2 0 -2 3 2 0 3 -4 0 -3 -5 0 0 4zm-8 34l0 -15 -7 0c-4,0 -7,1 -7,4 0,2 2,3 3,4l-3 7 5 0 3 -6 1 0 0 6 5 0zm-5 -12l0 3 -1 0c-2,0 -3,0 -3,-2 0,-1 2,-1 3,-1l1 0zm17 6c0,2 0,3 -2,3 -2,0 -2,-1 -2,-4l3 0 0 -2 -3 0c0,-2 0,-4 2,-4 2,0 2,2 2,3l5 0c0,-3 -2,-6 -7,-6 -6,0 -8,5 -8,8 0,4 2,8 8,8 4,0 7,-2 7,-5l-5 -1zm7 -9l0 4c0,3 2,5 6,5 1,0 2,0 3,0l0 6 5 0 0 -15 -5 0 0 6c-1,0 -1,0 -2,0 -2,0 -2,-1 -2,-2l0 -4 -5 0zm21 0l-5 0 0 15 5 0 0 -6 4 0 0 6 5 0 0 -15 -5 0 0 6 -4 0 0 -6zm11 7c0,4 2,8 8,8 5,0 7,-4 7,-8 0,-4 -2,-8 -7,-8 -6,0 -8,4 -8,8zm5 0c0,-3 0,-5 3,-5 2,0 2,2 2,5 0,3 0,5 -2,5 -3,0 -3,-2 -3,-5zm17 -7l-5 0 0 15 5 0 0 -15zm-7 -2l3 0 0 -2 -3 0 0 2zm5 0l4 0 0 -2 -4 0 0 2zm-84 40l5 0 0 -13 4 0 0 13 5 0 0 -15 -14 0 0 15zm16 -8c0,4 1,8 7,8 6,0 8,-4 8,-8 0,-4 -2,-8 -8,-8 -6,0 -7,4 -7,8zm5 0c0,-3 0,-5 2,-5 2,0 3,2 3,5 0,3 -1,5 -3,5 -2,0 -2,-2 -2,-5zm17 -5l1 0c1,0 3,1 3,2 0,2 -2,2 -3,2l-1 0 0 -4zm-5 13l5 0 0 -6c0,0 1,0 2,0 4,0 7,-2 7,-5 0,-3 -3,-4 -7,-4l-7 0 0 15zm14 -8c0,4 2,8 8,8 6,0 8,-4 8,-8 0,-4 -2,-8 -8,-8 -6,0 -8,4 -8,8zm6 0c0,-3 0,-5 2,-5 2,0 2,2 2,5 0,3 0,5 -2,5 -2,0 -2,-2 -2,-5zm26 -7l-13 0 0 5c0,4 0,5 -1,7l-2 0 0 6 5 0 0 -3 8 0 0 3 4 0 0 -6 -1 0 0 -12zm-5 12l-5 0c1,-2 2,-4 2,-6l0 -4 3 0 0 10zm8 -12l0 15 5 0 4 -9 0 0 0 9 5 0 0 -15 -5 0 -4 8 0 0 0 -8 -5 0z"/>
  </g>
  <g>
   <path class="fil0 str0" d="M15 111l0 -3 1 0c2,0 3,0 3,2 0,1 -1,1 -3,1l-1 0zm-4 -12l0 15 6 0c4,0 7,-1 7,-5 0,-2 -3,-4 -7,-4l-2 0 0 -3 7 0 0 -3 -11 0zm19 3l1 0c1,0 3,0 3,2 0,1 -2,2 -3,2l-1 0 0 -4zm-5 12l5 0 0 -6c0,0 1,0 2,0 3,0 6,-1 6,-5 0,-3 -2,-4 -6,-4l-7 0 0 15zm14 -7c0,4 2,8 7,8 5,0 7,-4 7,-8 0,-4 -2,-8 -7,-8 -5,0 -7,4 -7,8zm5 0c0,-3 0,-5 2,-5 2,0 2,2 2,5 0,3 0,5 -2,5 -2,0 -2,-2 -2,-5zm11 -8l0 15 5 0 3 -9 0 0 0 9 5 0 0 -15 -5 0 -4 9 0 0 0 -9 -4 0zm9 -4c0,1 -1,1 -3,1 -1,0 -2,0 -2,-1l-2 0c0,2 2,3 4,3 3,0 4,-1 5,-3l-2 0zm8 4l0 11c0,1 0,2 -1,2 -1,0 -1,0 -1,0l0 2c1,0 1,1 2,1 3,0 4,-2 4,-4l0 -9 3 0 0 12 5 0 0 -15 -12 0zm14 15l12 0 0 -3 -7 0 0 -3 4 0 0 -3 -4 0 0 -3 7 0 0 -3 -12 0 0 15zm18 -12l1 0c1,0 2,0 2,2 0,1 -1,2 -2,2l-1 0 0 -4zm-5 12l5 0 0 -6c0,0 1,0 2,0 3,0 6,-1 6,-5 0,-3 -3,-4 -6,-4l-7 0 0 15z"/>
   <path id="1" class="fil1" d="M15 111l0 -3 1 0c2,0 3,0 3,2 0,1 -1,1 -3,1l-1 0zm-4 -12l0 15 6 0c4,0 7,-1 7,-5 0,-2 -3,-4 -7,-4l-2 0 0 -3 7 0 0 -3 -11 0zm19 3l1 0c1,0 3,0 3,2 0,1 -2,2 -3,2l-1 0 0 -4zm-5 12l5 0 0 -6c0,0 1,0 2,0 3,0 6,-1 6,-5 0,-3 -2,-4 -6,-4l-7 0 0 15zm14 -7c0,4 2,8 7,8 5,0 7,-4 7,-8 0,-4 -2,-8 -7,-8 -5,0 -7,4 -7,8zm5 0c0,-3 0,-5 2,-5 2,0 2,2 2,5 0,3 0,5 -2,5 -2,0 -2,-2 -2,-5zm11 -8l0 15 5 0 3 -9 0 0 0 9 5 0 0 -15 -5 0 -4 9 0 0 0 -9 -4 0zm9 -4c0,1 -1,1 -3,1 -1,0 -2,0 -2,-1l-2 0c0,2 2,3 4,3 3,0 4,-1 5,-3l-2 0zm8 4l0 11c0,1 0,2 -1,2 -1,0 -1,0 -1,0l0 2c1,0 1,1 2,1 3,0 4,-2 4,-4l0 -9 3 0 0 12 5 0 0 -15 -12 0zm14 15l12 0 0 -3 -7 0 0 -3 4 0 0 -3 -4 0 0 -3 7 0 0 -3 -12 0 0 15zm18 -12l1 0c1,0 2,0 2,2 0,1 -1,2 -2,2l-1 0 0 -4zm-5 12l5 0 0 -6c0,0 1,0 2,0 3,0 6,-1 6,-5 0,-3 -3,-4 -6,-4l-7 0 0 15z"/>
  </g>
  <ellipse class="fil2 str1" transform="matrix(0.132859 0.0296215 -0.0456159 0.21977 3.65442 9.02154)" rx="20" ry="21"/>
  <ellipse class="fil2 str1" transform="matrix(0.132859 0.0296215 -0.0456159 0.21977 4.25648 107.127)" rx="20" ry="21"/>
 </g>
</svg>
