<svg id="Layer_1" data-name="Layer 1" xmlns="http://www.w3.org/2000/svg" viewBox="0 0 74.44 2.81"><defs><style>.cls-1{fill:#fff;}</style></defs><path class="cls-1" d="M2,.71V2.42h-.6V.71H1V.17H2.47V.71Z" transform="translate(-1.01 -0.14)"/><path class="cls-1" d="M3.11,1.82v.6H2.53v-.6Z" transform="translate(-1.01 -0.14)"/><path class="cls-1" d="M4,.75v.59H3.39V.75ZM4,1.82v.6H3.39v-.6Z" transform="translate(-1.01 -0.14)"/><path class="cls-1" d="M5.78.17a2.58,2.58,0,0,0-.39,1.39A2.74,2.74,0,0,0,5.78,3H5.37a2.43,2.43,0,0,1-.47-1.4A2.24,2.24,0,0,1,5.37.17Z" transform="translate(-1.01 -0.14)"/><path class="cls-1" d="M6.7,2.45a.68.68,0,0,1-.6-.32,1.49,1.49,0,0,1-.22-.84A1.4,1.4,0,0,1,6.11.45a.7.7,0,0,1,.6-.31.67.67,0,0,1,.6.33,1.54,1.54,0,0,1,.21.84,1.36,1.36,0,0,1-.23.83A.69.69,0,0,1,6.7,2.45ZM6.7,2q.13,0,.18-.18a2.23,2.23,0,0,0,0-.5A1.67,1.67,0,0,0,6.86.74c0-.09-.09-.13-.16-.13s-.13.06-.16.17a2,2,0,0,0,0,.48,2.27,2.27,0,0,0,0,.57C6.57,1.93,6.62,2,6.7,2Z" transform="translate(-1.01 -0.14)"/><path class="cls-1" d="M9.21.73H8.34l0,.32A.6.6,0,0,1,8.69.92a.67.67,0,0,1,.47.2.73.73,0,0,1,.2.54.78.78,0,0,1-.23.57.85.85,0,0,1-.61.22A.89.89,0,0,1,8,2.27a.76.76,0,0,1-.28-.51l.53-.07a.27.27,0,0,0,.29.25.26.26,0,0,0,.19-.08.32.32,0,0,0,.07-.19.25.25,0,0,0-.08-.2.26.26,0,0,0-.19-.08.27.27,0,0,0-.24.15l-.47-.08L7.88.17H9.26Z" transform="translate(-1.01 -0.14)"/><path class="cls-1" d="M10.34,2.45a.66.66,0,0,1-.59-.32,1.42,1.42,0,0,1-.22-.84A1.4,1.4,0,0,1,9.75.45a.7.7,0,0,1,.6-.31.67.67,0,0,1,.6.33,1.54,1.54,0,0,1,.21.84,1.36,1.36,0,0,1-.22.83A.7.7,0,0,1,10.34,2.45Zm0-.47c.08,0,.14-.06.17-.18a2.14,2.14,0,0,0,.05-.5,1.67,1.67,0,0,0-.06-.56c0-.09-.09-.13-.16-.13s-.14.06-.17.17a2,2,0,0,0,0,.48,2.27,2.27,0,0,0,0,.57A.18.18,0,0,0,10.35,2Z" transform="translate(-1.01 -0.14)"/><path class="cls-1" d="M11.26,3a2.51,2.51,0,0,0,.4-1.39,2.65,2.65,0,0,0-.4-1.39h.41a2.37,2.37,0,0,1,.48,1.4A2.19,2.19,0,0,1,11.67,3Z" transform="translate(-1.01 -0.14)"/><path class="cls-1" d="M13.08,1.85l.53-.09c0,.14.09.21.2.21a.22.22,0,0,0,.2-.13.76.76,0,0,0,.07-.37V1.41a.44.44,0,0,1-.4.21.6.6,0,0,1-.47-.2A.72.72,0,0,1,13,.91a.75.75,0,0,1,.22-.56.78.78,0,0,1,.58-.21.73.73,0,0,1,.63.3,1.34,1.34,0,0,1,.21.79,1.55,1.55,0,0,1-.22.88.73.73,0,0,1-.66.34.71.71,0,0,1-.48-.16A.7.7,0,0,1,13.08,1.85Zm.74-.7A.26.26,0,0,0,14,1.08a.27.27,0,0,0,.07-.2A.33.33,0,0,0,14,.67.21.21,0,0,0,13.83.6a.2.2,0,0,0-.16.07.33.33,0,0,0-.06.21.32.32,0,0,0,.06.2A.21.21,0,0,0,13.82,1.15Z" transform="translate(-1.01 -0.14)"/><path class="cls-1" d="M16.36.73h-.87l0,.32a.58.58,0,0,1,.37-.13.65.65,0,0,1,.47.2.7.7,0,0,1,.21.54.75.75,0,0,1-.24.57.84.84,0,0,1-.6.22.87.87,0,0,1-.55-.18.77.77,0,0,1-.29-.51l.54-.07a.27.27,0,0,0,.29.25.22.22,0,0,0,.18-.08.26.26,0,0,0,.07-.19.22.22,0,0,0-.08-.2.26.26,0,0,0-.42.07l-.48-.08L15,.17h1.39Z" transform="translate(-1.01 -0.14)"/><path class="cls-1" d="M18.28.81l-.53.07c0-.18-.08-.27-.2-.27s-.26.19-.26.58A.44.44,0,0,1,17.7,1a.6.6,0,0,1,.46.2.71.71,0,0,1,.17.5.74.74,0,0,1-.22.55.77.77,0,0,1-.57.22.82.82,0,0,1-.46-.13.83.83,0,0,1-.3-.4,1.48,1.48,0,0,1-.1-.57A1.56,1.56,0,0,1,16.9.48a.71.71,0,0,1,.64-.34.8.8,0,0,1,.5.17A.79.79,0,0,1,18.28.81ZM17.52,2a.21.21,0,0,0,.17-.08.33.33,0,0,0,0-.38.19.19,0,0,0-.16-.09.2.2,0,0,0-.17.09.26.26,0,0,0-.07.19.31.31,0,0,0,.06.19A.23.23,0,0,0,17.52,2Z" transform="translate(-1.01 -0.14)"/><path class="cls-1" d="M19.22,1.31v.52h-.77V1.31Z" transform="translate(-1.01 -0.14)"/><path class="cls-1" d="M20.69,1.2a.59.59,0,0,1,.33.55.61.61,0,0,1-.24.52,1,1,0,0,1-.63.18.92.92,0,0,1-.61-.17.55.55,0,0,1-.21-.45.52.52,0,0,1,.33-.51A.52.52,0,0,1,19.4.83a.64.64,0,0,1,.21-.49.8.8,0,0,1,.59-.2.85.85,0,0,1,.54.16A.54.54,0,0,1,21,.74a.59.59,0,0,1,0,.23A.77.77,0,0,1,20.69,1.2ZM20,1.55a.27.27,0,0,0-.15.23A.23.23,0,0,0,20,2a.33.33,0,0,0,.23.07A.36.36,0,0,0,20.37,2a.15.15,0,0,0,.06-.13c0-.08-.06-.15-.18-.2ZM20.3,1a.23.23,0,0,0,.13-.21.24.24,0,0,0-.07-.17.32.32,0,0,0-.2-.07A.23.23,0,0,0,20,.63.17.17,0,0,0,20,.75a.21.21,0,0,0,.15.19Z" transform="translate(-1.01 -0.14)"/><path class="cls-1" d="M21.13,1.73l.54-.07c0,.21.13.31.3.31a.25.25,0,0,0,.19-.07.24.24,0,0,0,.07-.17.28.28,0,0,0,0-.13l-.08-.07a.3.3,0,0,0-.16,0H21.7V1h.21A.27.27,0,0,0,22.13,1a.24.24,0,0,0,.05-.14.2.2,0,0,0-.06-.15A.25.25,0,0,0,22,.63c-.14,0-.23.08-.26.25L21.2.8a.81.81,0,0,1,.29-.49.93.93,0,0,1,1.07,0,.57.57,0,0,1,.21.46.49.49,0,0,1-.09.3.42.42,0,0,1-.22.18.5.5,0,0,1,.37.52.62.62,0,0,1-.23.51,1,1,0,0,1-.59.17A.82.82,0,0,1,21.13,1.73Z" transform="translate(-1.01 -0.14)"/><path class="cls-1" d="M23.72,1.31v.52H23V1.31Z" transform="translate(-1.01 -0.14)"/><path class="cls-1" d="M25.46.81l-.53.07c0-.18-.09-.27-.2-.27s-.26.19-.27.58A.44.44,0,0,1,24.88,1a.56.56,0,0,1,.45.2.71.71,0,0,1,.18.5.74.74,0,0,1-.22.55.78.78,0,0,1-.58.22.77.77,0,0,1-.45-.13.73.73,0,0,1-.3-.4,1.48,1.48,0,0,1-.11-.57,1.56,1.56,0,0,1,.23-.87.71.71,0,0,1,.63-.34.78.78,0,0,1,.5.17A.75.75,0,0,1,25.46.81ZM24.7,2a.19.19,0,0,0,.16-.08.26.26,0,0,0,.07-.19.26.26,0,0,0-.07-.19.18.18,0,0,0-.16-.09.21.21,0,0,0-.17.09.29.29,0,0,0,0,.38A.21.21,0,0,0,24.7,2Z" transform="translate(-1.01 -0.14)"/><path class="cls-1" d="M26.49,2.45a.67.67,0,0,1-.59-.32,1.42,1.42,0,0,1-.22-.84A1.47,1.47,0,0,1,25.9.45a.7.7,0,0,1,.6-.31.68.68,0,0,1,.61.33,1.54,1.54,0,0,1,.21.84,1.36,1.36,0,0,1-.23.83A.7.7,0,0,1,26.49,2.45Zm0-.47c.09,0,.14-.06.17-.18a2.14,2.14,0,0,0,0-.5,1.67,1.67,0,0,0-.06-.56c0-.09-.09-.13-.16-.13s-.14.06-.17.17a2.09,2.09,0,0,0,0,.48,2.43,2.43,0,0,0,0,.57A.18.18,0,0,0,26.5,2Z" transform="translate(-1.01 -0.14)"/><path class="cls-1" d="M29.87.17a2.51,2.51,0,0,0-.4,1.39A2.65,2.65,0,0,0,29.87,3h-.41A2.37,2.37,0,0,1,29,1.55,2.19,2.19,0,0,1,29.46.17Z" transform="translate(-1.01 -0.14)"/><path class="cls-1" d="M30.78,2.45a.66.66,0,0,1-.59-.32A1.42,1.42,0,0,1,30,1.29a1.4,1.4,0,0,1,.22-.84.7.7,0,0,1,.6-.31.67.67,0,0,1,.6.33,1.54,1.54,0,0,1,.21.84,1.36,1.36,0,0,1-.22.83A.7.7,0,0,1,30.78,2.45Zm0-.47c.08,0,.14-.06.17-.18A2.14,2.14,0,0,0,31,1.3,1.67,1.67,0,0,0,31,.74c0-.09-.09-.13-.16-.13s-.14.06-.17.17a2,2,0,0,0-.05.48,2.27,2.27,0,0,0,.05.57A.18.18,0,0,0,30.79,2Z" transform="translate(-1.01 -0.14)"/><path class="cls-1" d="M31.84,1.85l.53-.09c0,.14.08.21.2.21a.22.22,0,0,0,.19-.13.76.76,0,0,0,.07-.37V1.41a.44.44,0,0,1-.4.21.6.6,0,0,1-.47-.2.72.72,0,0,1-.18-.51A.75.75,0,0,1,32,.35a.78.78,0,0,1,.58-.21.72.72,0,0,1,.63.3,1.34,1.34,0,0,1,.21.79,1.55,1.55,0,0,1-.22.88.73.73,0,0,1-.66.34.71.71,0,0,1-.48-.16A.64.64,0,0,1,31.84,1.85Zm.73-.7a.24.24,0,0,0,.16-.07.27.27,0,0,0,.07-.2.33.33,0,0,0-.06-.21.22.22,0,0,0-.32,0,.33.33,0,0,0-.06.21.32.32,0,0,0,.06.2A.21.21,0,0,0,32.57,1.15Z" transform="translate(-1.01 -0.14)"/><path class="cls-1" d="M34.94,1.2a.59.59,0,0,1,.33.55.61.61,0,0,1-.24.52,1,1,0,0,1-.63.18.89.89,0,0,1-.6-.17.55.55,0,0,1-.21-.45.51.51,0,0,1,.32-.51.54.54,0,0,1-.26-.49.64.64,0,0,1,.21-.49.8.8,0,0,1,.59-.2A.9.9,0,0,1,35,.3a.54.54,0,0,1,.21.44.59.59,0,0,1-.05.23A.66.66,0,0,1,34.94,1.2Zm-.67.35a.27.27,0,0,0-.15.23.21.21,0,0,0,.09.17.31.31,0,0,0,.22.07A.33.33,0,0,0,34.62,2a.15.15,0,0,0,.06-.13c0-.08-.06-.15-.18-.2ZM34.55,1a.23.23,0,0,0,.13-.21.21.21,0,0,0-.07-.17.3.3,0,0,0-.2-.07.25.25,0,0,0-.15.05.17.17,0,0,0,0,.12.21.21,0,0,0,.15.19Z" transform="translate(-1.01 -0.14)"/><path class="cls-1" d="M35.35,3a2.58,2.58,0,0,0,.39-1.39A2.74,2.74,0,0,0,35.35.17h.41a2.37,2.37,0,0,1,.48,1.4A2.19,2.19,0,0,1,35.76,3Z" transform="translate(-1.01 -0.14)"/><path class="cls-1" d="M37.07,1.73l.54-.07c0,.21.13.31.3.31a.25.25,0,0,0,.19-.07.24.24,0,0,0,.07-.17.28.28,0,0,0,0-.13s-.05-.06-.08-.07a.28.28,0,0,0-.15,0h-.26V1h.22A.26.26,0,0,0,38.07,1a.19.19,0,0,0,0-.14.2.2,0,0,0-.06-.15A.25.25,0,0,0,37.9.63c-.14,0-.23.08-.26.25L37.14.8a.81.81,0,0,1,.29-.49.93.93,0,0,1,1.07,0,.57.57,0,0,1,.21.46.49.49,0,0,1-.09.3.42.42,0,0,1-.22.18.49.49,0,0,1,.37.52.62.62,0,0,1-.23.51,1,1,0,0,1-.58.17A.83.83,0,0,1,37.07,1.73Z" transform="translate(-1.01 -0.14)"/><path class="cls-1" d="M38.89,1.73l.54-.07c0,.21.14.31.3.31a.25.25,0,0,0,.19-.07A.21.21,0,0,0,40,1.73a.2.2,0,0,0,0-.13.18.18,0,0,0-.08-.07.28.28,0,0,0-.15,0h-.25V1h.21A.3.3,0,0,0,39.9,1a.23.23,0,0,0,0-.14.2.2,0,0,0-.06-.15.25.25,0,0,0-.15-.05c-.15,0-.23.08-.26.25L39,.8a.86.86,0,0,1,.29-.49.88.88,0,0,1,.53-.17.83.83,0,0,1,.54.17.57.57,0,0,1,.21.46.49.49,0,0,1-.09.3.42.42,0,0,1-.22.18.49.49,0,0,1,.37.52.61.61,0,0,1-.22.51,1,1,0,0,1-.59.17A.83.83,0,0,1,38.89,1.73Z" transform="translate(-1.01 -0.14)"/><path class="cls-1" d="M41.93,1.92h.49v.5h-1.6v-.5h.52V.85a2.27,2.27,0,0,1-.46.17V.51a.86.86,0,0,0,.6-.37h.45Z" transform="translate(-1.01 -0.14)"/><path class="cls-1" d="M43.26,1.31v.52h-.77V1.31Z" transform="translate(-1.01 -0.14)"/><path class="cls-1" d="M45.09,1.93H44.8v.49h-.57V1.93h-.85V1.44l.78-1.3h.64v1.3h.29Zm-.86-.49V.77l-.39.67Z" transform="translate(-1.01 -0.14)"/><path class="cls-1" d="M46.94,1.93h-.29v.49h-.57V1.93h-.84V1.44L46,.14h.63v1.3h.29Zm-.86-.49V.77l-.39.67Z" transform="translate(-1.01 -0.14)"/><path class="cls-1" d="M47.79,1.31v.52H47V1.31Z" transform="translate(-1.01 -0.14)"/><path class="cls-1" d="M49.25,1.2a.59.59,0,0,1,.34.55.61.61,0,0,1-.24.52,1,1,0,0,1-.63.18.91.91,0,0,1-.61-.17.55.55,0,0,1-.21-.45.53.53,0,0,1,.32-.51A.54.54,0,0,1,48,.83a.61.61,0,0,1,.22-.49.77.77,0,0,1,.58-.2.86.86,0,0,1,.55.16.54.54,0,0,1,.21.44.59.59,0,0,1-.05.23A.58.58,0,0,1,49.25,1.2Zm-.67.35a.28.28,0,0,0-.14.23.23.23,0,0,0,.08.17.32.32,0,0,0,.23.07A.3.3,0,0,0,48.93,2,.16.16,0,0,0,49,1.84c0-.08-.06-.15-.18-.2ZM48.87,1A.24.24,0,0,0,49,.82a.21.21,0,0,0-.08-.17.28.28,0,0,0-.2-.07.2.2,0,0,0-.14.05.13.13,0,0,0,0,.12.21.21,0,0,0,.15.19Z" transform="translate(-1.01 -0.14)"/><path class="cls-1" d="M49.79,1.85l.54-.09c0,.14.08.21.19.21a.22.22,0,0,0,.2-.13.76.76,0,0,0,.07-.37V1.41a.44.44,0,0,1-.4.21.6.6,0,0,1-.47-.2.72.72,0,0,1-.18-.51A.75.75,0,0,1,50,.35a.78.78,0,0,1,.58-.21.72.72,0,0,1,.63.3,1.34,1.34,0,0,1,.21.79,1.55,1.55,0,0,1-.22.88.73.73,0,0,1-.66.34A.71.71,0,0,1,50,2.29.7.7,0,0,1,49.79,1.85Zm.74-.7a.26.26,0,0,0,.16-.07.27.27,0,0,0,.07-.2A.33.33,0,0,0,50.7.67.21.21,0,0,0,50.54.6a.2.2,0,0,0-.16.07.33.33,0,0,0-.06.21.32.32,0,0,0,.06.2A.21.21,0,0,0,50.53,1.15Z" transform="translate(-1.01 -0.14)"/><path class="cls-1" d="M53.94.17a2.51,2.51,0,0,0-.4,1.39A2.65,2.65,0,0,0,53.94,3h-.41a2.37,2.37,0,0,1-.48-1.4A2.19,2.19,0,0,1,53.53.17Z" transform="translate(-1.01 -0.14)"/><path class="cls-1" d="M54.85,2.45a.66.66,0,0,1-.59-.32A1.42,1.42,0,0,1,54,1.29a1.4,1.4,0,0,1,.22-.84.7.7,0,0,1,.6-.31.67.67,0,0,1,.6.33,1.54,1.54,0,0,1,.21.84,1.36,1.36,0,0,1-.22.83A.7.7,0,0,1,54.85,2.45Zm0-.47c.08,0,.14-.06.17-.18a2.14,2.14,0,0,0,0-.5A1.67,1.67,0,0,0,55,.74a.18.18,0,0,0-.16-.13c-.08,0-.14.06-.17.17a2,2,0,0,0,0,.48,2.27,2.27,0,0,0,0,.57A.18.18,0,0,0,54.86,2Z" transform="translate(-1.01 -0.14)"/><path class="cls-1" d="M57.46.81l-.53.07c0-.18-.08-.27-.2-.27s-.26.19-.27.58A.44.44,0,0,1,56.88,1a.6.6,0,0,1,.46.2.76.76,0,0,1,.17.5.74.74,0,0,1-.22.55.77.77,0,0,1-.57.22.8.8,0,0,1-.46-.13.83.83,0,0,1-.3-.4,1.48,1.48,0,0,1-.1-.57,1.56,1.56,0,0,1,.22-.87.71.71,0,0,1,.64-.34.75.75,0,0,1,.49.17A.75.75,0,0,1,57.46.81ZM56.7,2a.23.23,0,0,0,.17-.08.33.33,0,0,0,0-.38.2.2,0,0,0-.17-.09.22.22,0,0,0-.17.09.33.33,0,0,0,0,.38A.21.21,0,0,0,56.7,2Z" transform="translate(-1.01 -0.14)"/><path class="cls-1" d="M59.28.81l-.53.07c0-.18-.08-.27-.2-.27s-.26.19-.27.58A.46.46,0,0,1,58.7,1a.6.6,0,0,1,.46.2.71.71,0,0,1,.17.5.74.74,0,0,1-.22.55.77.77,0,0,1-.57.22.82.82,0,0,1-.46-.13.83.83,0,0,1-.3-.4,1.48,1.48,0,0,1-.1-.57A1.56,1.56,0,0,1,57.9.48a.71.71,0,0,1,.64-.34.8.8,0,0,1,.5.17A.79.79,0,0,1,59.28.81ZM58.52,2a.21.21,0,0,0,.17-.08.33.33,0,0,0,0-.38.19.19,0,0,0-.16-.09.2.2,0,0,0-.17.09.26.26,0,0,0-.07.19.31.31,0,0,0,.06.19A.23.23,0,0,0,58.52,2Z" transform="translate(-1.01 -0.14)"/><path class="cls-1" d="M59.42,3a2.59,2.59,0,0,0,.4-1.39,2.75,2.75,0,0,0-.4-1.39h.41a2.37,2.37,0,0,1,.48,1.4A2.19,2.19,0,0,1,59.83,3Z" transform="translate(-1.01 -0.14)"/><path class="cls-1" d="M62,2.45a.68.68,0,0,1-.6-.32,1.49,1.49,0,0,1-.21-.84,1.4,1.4,0,0,1,.22-.84A.7.7,0,0,1,62,.14a.67.67,0,0,1,.6.33,1.54,1.54,0,0,1,.21.84,1.43,1.43,0,0,1-.22.83A.71.71,0,0,1,62,2.45ZM62,2q.14,0,.18-.18a2.23,2.23,0,0,0,0-.5,1.67,1.67,0,0,0-.06-.56c0-.09-.09-.13-.15-.13s-.14.06-.17.17a2,2,0,0,0-.05.48,2.27,2.27,0,0,0,.05.57C61.88,1.93,61.93,2,62,2Z" transform="translate(-1.01 -0.14)"/><path class="cls-1" d="M64.53.17V.59a2.76,2.76,0,0,0-.39.77,3.13,3.13,0,0,0-.16.92.88.88,0,0,0,0,.14H63.3a2.46,2.46,0,0,1,.18-.87A2.72,2.72,0,0,1,64,.74H63l0-.57Z" transform="translate(-1.01 -0.14)"/><path class="cls-1" d="M65.59,2.45A.66.66,0,0,1,65,2.13a1.42,1.42,0,0,1-.22-.84A1.4,1.4,0,0,1,65,.45a.7.7,0,0,1,.6-.31.67.67,0,0,1,.6.33,1.54,1.54,0,0,1,.21.84,1.36,1.36,0,0,1-.22.83A.71.71,0,0,1,65.59,2.45Zm0-.47q.14,0,.18-.18a2.23,2.23,0,0,0,0-.5,1.67,1.67,0,0,0-.06-.56A.16.16,0,0,0,65.6.61c-.08,0-.14.06-.17.17a2,2,0,0,0-.05.48,2.27,2.27,0,0,0,.05.57C65.46,1.93,65.51,2,65.59,2Z" transform="translate(-1.01 -0.14)"/><path class="cls-1" d="M67.32,1.31v.52h-.77V1.31Z" transform="translate(-1.01 -0.14)"/><path class="cls-1" d="M68.66,1.92h.49v.5H67.56v-.5h.51V.85a2.27,2.27,0,0,1-.46.17V.51a.86.86,0,0,0,.6-.37h.45Z" transform="translate(-1.01 -0.14)"/><path class="cls-1" d="M70.9,1.87l0,.55H69.3V1.9l.35-.27a3.7,3.7,0,0,0,.29-.24,2.18,2.18,0,0,0,.28-.3.37.37,0,0,0,.06-.21.29.29,0,0,0,0-.17.21.21,0,0,0-.15-.07c-.15,0-.24.13-.26.39L69.3.92a.94.94,0,0,1,.28-.59.83.83,0,0,1,.54-.19.77.77,0,0,1,.55.19.67.67,0,0,1,.22.53.78.78,0,0,1-.12.41,2.75,2.75,0,0,1-.68.6Z" transform="translate(-1.01 -0.14)"/><path class="cls-1" d="M71.84,1.31v.52h-.77V1.31Z" transform="translate(-1.01 -0.14)"/><path class="cls-1" d="M73.67,1.93h-.29v.49h-.57V1.93H72V1.44l.78-1.3h.64v1.3h.29Zm-.86-.49V.77l-.39.67Z" transform="translate(-1.01 -0.14)"/><path class="cls-1" d="M75.3.73h-.87l0,.32a.56.56,0,0,1,.37-.13.65.65,0,0,1,.47.2.69.69,0,0,1,.2.54.78.78,0,0,1-.23.57.93.93,0,0,1-1.15,0,.74.74,0,0,1-.29-.51l.53-.07a.28.28,0,0,0,.29.25.24.24,0,0,0,.19-.08.26.26,0,0,0,.07-.19.27.27,0,0,0-.26-.28.27.27,0,0,0-.25.15l-.47-.08L74,.17h1.38Z" transform="translate(-1.01 -0.14)"/></svg>