<?xml version="1.0" encoding="UTF-8"?>
<!DOCTYPE svg PUBLIC "-//W3C//DTD SVG 1.1//EN" "http://www.w3.org/Graphics/SVG/1.1/DTD/svg11.dtd">
<!-- Creator: CorelDRAW X7 -->
<svg xmlns="http://www.w3.org/2000/svg" xml:space="preserve" width="26.6181mm" height="1.161mm" version="1.1" style="shape-rendering:geometricPrecision; text-rendering:geometricPrecision; image-rendering:optimizeQuality; fill-rule:evenodd; clip-rule:evenodd"
viewBox="0 0 453 20"
 xmlns:xlink="http://www.w3.org/1999/xlink">
 <defs>
  <style type="text/css">
   <![CDATA[
    .fil0 {fill:#FEFEFE;fill-rule:nonzero}
   ]]>
  </style>
 </defs>
 <g id="Слой_x0020_1">
  <metadata id="CorelCorpID_0Corel-Layer"/>
  <path class="fil0" d="M3 16l0 -9 -3 0 0 -3 9 0 0 3 -3 0 0 9 -3 0zm10 -4l0 4 -4 0 0 -4 4 0zm5 -8l0 4 -4 0 0 -4 4 0zm0 8l0 4 -4 0 0 -4 4 0zm11 -12c-2,3 -2,6 -2,10 0,3 0,6 2,9l-3 0c-2,-3 -2,-6 -2,-9 0,-4 0,-7 2,-10l3 0zm5 16c-1,0 -2,-1 -3,-2 -1,-2 -1,-4 -1,-6 0,-2 0,-4 1,-6 1,-1 2,-2 4,-2 1,0 2,1 3,2 1,2 1,4 1,6 0,3 0,4 -1,6 -1,1 -2,2 -4,2zm1 -3c0,0 0,-1 1,-2 0,0 0,-2 0,-3 0,-2 0,-3 -1,-4 0,0 0,-1 0,-1 -1,0 -1,1 -1,1 -1,1 -1,2 -1,4 0,2 0,3 1,4 0,0 0,1 1,1zm15 -9l-6 0 0 2c1,0 2,-1 3,-1 1,0 2,1 2,2 1,1 2,2 2,3 0,2 -1,3 -2,4 -1,1 -2,2 -3,2 -2,0 -3,0 -4,-1 -1,-1 -1,-2 -2,-4l4 0c0,1 1,1 1,1 1,0 1,0 2,0 0,0 0,-1 0,-1 0,-1 0,-1 0,-2 -1,0 -1,0 -2,0 0,0 -1,0 -1,1l-3 -1 1 -9 8 0 0 4zm7 12c-2,0 -3,-1 -4,-2 -1,-2 -1,-4 -1,-6 0,-2 0,-4 1,-6 1,-1 2,-2 4,-2 1,0 2,1 3,2 1,2 2,4 2,6 0,3 -1,4 -2,6 -1,1 -2,2 -3,2zm0 -3c0,0 1,-1 1,-2 0,0 0,-2 0,-3 0,-2 0,-3 0,-4 -1,0 -1,-1 -1,-1 -1,0 -1,1 -1,1 -1,1 -1,2 -1,4 0,2 0,3 1,4 0,0 0,1 1,1zm5 6c2,-2 3,-6 3,-9 0,-4 -1,-7 -3,-10l3 0c2,3 3,7 3,10 0,3 -1,7 -3,9l-3 0zm11 -7l4 -1c0,1 0,2 1,2 0,0 1,-1 1,-1 0,-1 0,-2 0,-3 0,0 0,0 0,0 0,1 -1,1 -2,1 -1,0 -2,0 -3,-1 -1,-1 -1,-2 -1,-4 0,-1 0,-3 1,-4 1,-1 2,-1 4,-1 1,0 3,1 4,2 0,1 1,3 1,6 0,2 -1,4 -1,6 -1,1 -3,2 -4,2 -2,0 -3,0 -3,-1 -1,-1 -2,-2 -2,-3zm5 -5c0,0 0,0 1,-1 0,0 0,0 0,-1 0,0 0,-1 0,-1 -1,-1 -1,-1 -1,-1 -1,0 -1,0 -1,1 0,0 -1,0 -1,1 0,1 1,1 1,1 0,1 0,1 1,1zm15 -3l-5 0 0 2c0,0 1,-1 2,-1 1,0 2,1 3,2 1,1 1,2 1,3 0,2 0,3 -1,4 -1,1 -2,2 -4,2 -1,0 -2,0 -3,-1 -1,-1 -2,-2 -2,-4l3 0c0,1 1,1 2,1 0,0 1,0 1,0 0,0 1,-1 1,-1 0,-1 -1,-1 -1,-2 0,0 -1,0 -1,0 -1,0 -1,0 -2,1l-2 -1 0 -9 9 0 -1 4zm12 1l-3 0c0,-1 -1,-2 -2,-2 -1,0 -1,2 -1,4 0,-1 1,-1 2,-1 1,0 2,0 3,1 1,1 1,2 1,4 0,1 0,2 -1,3 -1,1 -2,2 -4,2 -1,0 -2,0 -2,-1 -1,-1 -2,-1 -2,-3 -1,-1 -1,-2 -1,-4 0,-2 1,-4 1,-6 1,-1 3,-2 4,-2 2,0 3,0 3,1 1,1 2,2 2,4zm-5 8c1,0 1,0 1,-1 0,0 1,0 1,-1 0,-1 -1,-1 -1,-1 0,-1 0,-1 -1,-1 0,0 -1,0 -1,1 0,0 0,0 0,1 0,1 0,1 0,1 0,1 1,1 1,1zm11 -5l0 4 -5 0 0 -4 5 0zm8 -1c2,1 2,2 2,4 0,2 0,3 -1,4 -1,1 -2,1 -4,1 -1,0 -3,0 -3,-1 -1,-1 -2,-2 -2,-3 0,-2 1,-3 2,-4 -1,-1 -1,-2 -1,-3 0,-2 0,-3 1,-4 1,-1 2,-1 3,-1 2,0 3,0 4,1 1,1 1,2 1,3 0,1 0,1 0,2 0,0 -1,1 -2,1zm-2 -1c1,0 1,-1 1,-1 0,-1 0,-1 -1,-1 0,-1 0,-1 -1,-1 0,0 0,0 -1,0 0,1 0,1 0,1 0,1 0,1 1,2l1 0zm-2 4c0,0 -1,1 -1,1 0,1 1,1 1,2 0,0 1,0 1,0 1,0 1,0 1,0 1,-1 1,-1 1,-1 0,-1 0,-1 -1,-2l-2 0zm7 1l3 0c1,1 1,2 2,2 1,0 1,0 1,-1 1,0 1,0 1,-1 0,0 0,-1 0,-1 -1,0 -1,0 -1,0 0,-1 0,-1 -1,-1l-1 0 0 -3 1 0c1,0 1,0 1,0 0,-1 1,-1 1,-1 0,-1 -1,-1 -1,-1 0,0 0,-1 -1,-1 -1,0 -1,1 -1,2l-3 0c0,-2 0,-3 1,-4 1,-1 2,-1 3,-1 2,0 3,0 4,1 1,1 1,2 1,3 0,1 0,2 0,2 -1,1 -1,1 -2,2 2,0 2,1 2,3 0,2 0,3 -1,4 -1,1 -2,1 -3,1 -3,0 -5,-2 -6,-5zm16 -3l0 4 -5 0 0 -4 5 0zm10 -3l-3 0c0,-1 0,-2 -1,-2 -1,0 -2,2 -2,4 1,-1 2,-1 3,-1 1,0 2,0 3,1 0,1 1,2 1,4 0,1 -1,2 -2,3 -1,1 -2,2 -3,2 -1,0 -2,0 -3,-1 -1,-1 -1,-1 -2,-3 0,-1 0,-2 0,-4 0,-2 0,-4 1,-6 1,-1 2,-2 4,-2 1,0 2,0 3,1 1,1 1,2 1,4zm-4 8c0,0 1,0 1,-1 0,0 0,0 0,-1 0,-1 0,-1 0,-1 0,-1 -1,-1 -1,-1 -1,0 -1,0 -1,1 0,0 -1,0 -1,1 0,1 1,1 1,1 0,1 0,1 1,1zm11 3c-2,0 -3,-1 -4,-2 -1,-2 -1,-4 -1,-6 0,-2 0,-4 1,-6 1,-1 2,-2 4,-2 1,0 3,1 3,2 1,2 2,4 2,6 0,3 -1,4 -2,6 -1,1 -2,2 -3,2zm0 -3c0,0 1,-1 1,-2 0,0 0,-2 0,-3 0,-2 0,-3 0,-4 -1,0 -1,-1 -1,-1 -1,0 -1,1 -1,1 0,1 -1,2 -1,4 0,2 1,3 1,4 0,0 0,1 1,1zm10 -1l0 3 -2 5 -2 0 2 -4 -2 0 0 -4 4 0zm11 -12c-2,3 -3,6 -3,10 0,3 1,6 3,9l-3 0c-2,-3 -3,-6 -3,-9 0,-4 1,-7 3,-10l3 0zm5 16c-1,0 -2,-1 -3,-2 -1,-2 -2,-4 -2,-6 0,-2 1,-4 2,-6 1,-1 2,-2 3,-2 2,0 3,1 4,2 1,2 1,4 1,6 0,3 0,4 -1,6 -1,1 -2,2 -4,2zm0 -3c1,0 1,-1 1,-2 1,0 1,-2 1,-3 0,-2 -1,-3 -1,-4 0,0 0,-1 -1,-1 0,0 -1,1 -1,1 0,1 0,2 0,4 0,2 0,3 0,4 0,0 1,1 1,1zm7 -1l3 -1c0,1 0,2 1,2 1,0 1,-1 1,-1 1,-1 1,-2 1,-3 0,0 0,0 0,0 -1,1 -2,1 -3,1 -1,0 -2,0 -3,-1 0,-1 -1,-2 -1,-4 0,-1 1,-3 2,-4 0,-1 2,-1 3,-1 2,0 3,1 4,2 1,1 1,3 1,6 0,2 0,4 -1,6 -1,1 -2,2 -4,2 -1,0 -2,0 -3,-1 -1,-1 -1,-2 -1,-3zm4 -5c0,0 1,0 1,-1 0,0 0,0 0,-1 0,0 0,-1 0,-1 0,-1 0,-1 -1,-1 0,0 -1,0 -1,1 0,0 0,0 0,1 0,1 0,1 0,1 0,1 1,1 1,1zm14 0c2,1 3,2 3,4 0,2 -1,3 -2,4 -1,1 -2,1 -4,1 -1,0 -3,0 -3,-1 -1,-1 -2,-2 -2,-3 0,-2 1,-3 2,-4 -1,-1 -1,-2 -1,-3 0,-2 0,-3 1,-4 1,-1 2,-1 4,-1 1,0 2,0 3,1 1,1 1,2 1,3 0,1 0,1 0,2 0,0 -1,1 -2,1zm-2 -1c1,0 1,-1 1,-1 0,-1 0,-1 -1,-1 0,-1 0,-1 -1,-1 0,0 0,0 -1,0 0,1 0,1 0,1 0,1 0,1 1,2l1 0zm-2 4c0,0 0,1 0,1 0,1 0,1 0,2 0,0 1,0 1,0 1,0 1,0 2,0 0,-1 0,-1 0,-1 0,-1 0,-1 -1,-2l-2 0zm7 9c2,-2 2,-6 2,-9 0,-4 0,-7 -2,-10l2 0c2,3 3,7 3,10 0,3 -1,7 -3,9l-2 0zm10 -8l4 0c0,1 1,2 2,2 0,0 0,0 1,-1 0,0 0,0 0,-1 0,0 0,-1 0,-1 0,0 0,0 -1,0 0,-1 0,-1 -1,-1l-1 0 0 -3 1 0c1,0 1,0 2,0 0,-1 0,-1 0,-1 0,-1 0,-1 -1,-1 0,0 0,-1 -1,-1 0,0 -1,1 -1,2l-3 0c0,-2 1,-3 2,-4 1,-1 2,-1 3,-1 1,0 2,0 3,1 1,1 1,2 1,3 0,1 0,2 0,2 -1,1 -1,1 -2,2 2,0 3,1 3,3 0,2 -1,3 -2,4 -1,1 -2,1 -3,1 -3,0 -5,-2 -6,-5zm11 0l4 0c0,1 1,2 2,2 0,0 0,0 1,-1 0,0 0,0 0,-1 0,0 0,-1 0,-1 0,0 0,0 -1,0 0,-1 0,-1 0,-1l-2 0 0 -3 1 0c1,0 1,0 2,0 0,-1 0,-1 0,-1 0,-1 0,-1 0,-1 -1,0 -1,-1 -1,-1 -1,0 -2,1 -2,2l-3 0c0,-2 1,-3 2,-4 1,-1 2,-1 3,-1 1,0 2,0 3,1 1,1 1,2 1,3 0,1 0,2 0,2 0,1 -1,1 -1,2 1,0 2,1 2,3 0,2 -1,3 -2,4 0,1 -2,1 -3,1 -3,0 -5,-2 -6,-5zm19 1l3 0 0 4 -10 0 0 -4 3 0 0 -7c-1,1 -2,1 -2,1l0 -3c1,-1 3,-2 3,-3l3 0 0 12zm8 -4l0 4 -5 0 0 -4 5 0zm11 4l-2 0 0 4 -3 0 0 -4 -5 0 0 -3 5 -9 3 0 0 9 2 0 0 3zm-5 -3l0 -5 -2 5 2 0zm16 3l-1 0 0 4 -4 0 0 -4 -5 0 0 -3 5 -9 4 0 0 9 1 0 0 3zm-5 -3l0 -5 -2 5 2 0zm11 -1l0 4 -5 0 0 -4 5 0zm8 -1c2,1 2,2 2,4 0,2 0,3 -1,4 -1,1 -2,1 -4,1 -1,0 -3,0 -4,-1 0,-1 -1,-2 -1,-3 0,-2 1,-3 2,-4 -1,-1 -1,-2 -1,-3 0,-2 0,-3 1,-4 1,-1 2,-1 3,-1 2,0 3,0 4,1 1,1 1,2 1,3 0,1 0,1 0,2 0,0 -1,1 -2,1zm-2 -1c1,0 1,-1 1,-1 0,-1 0,-1 -1,-1 0,-1 0,-1 -1,-1 0,0 0,0 -1,0 0,1 0,1 0,1 0,1 0,1 1,2l1 0zm-2 4c0,0 -1,1 -1,1 0,1 1,1 1,2 0,0 1,0 1,0 1,0 1,0 1,0 1,-1 1,-1 1,-1 0,-1 0,-1 -1,-2l-2 0zm8 2l3 -1c0,1 0,2 1,2 1,0 1,-1 1,-1 1,-1 1,-2 1,-3 0,0 0,0 0,0 -1,1 -2,1 -3,1 -1,0 -2,0 -3,-1 0,-1 -1,-2 -1,-4 0,-1 1,-3 2,-4 1,-1 2,-1 3,-1 2,0 3,1 4,2 1,1 1,3 1,6 0,2 0,4 -1,6 -1,1 -2,2 -4,2 -1,0 -2,0 -3,-1 -1,-1 -1,-2 -1,-3zm4 -5c1,0 1,0 1,-1 0,0 1,0 1,-1 0,0 -1,-1 -1,-1 0,-1 0,-1 -1,-1 0,0 0,0 -1,1 0,0 0,0 0,1 0,1 0,1 0,1 0,1 1,1 1,1zm10 5l0 3 -2 5 -1 0 1 -4 -1 0 0 -4 3 0zm11 -12c-1,3 -2,6 -2,10 0,3 1,6 2,9l-2 0c-2,-3 -3,-6 -3,-9 0,-4 1,-7 3,-10l2 0zm6 16c-2,0 -3,-1 -4,-2 -1,-2 -1,-4 -1,-6 0,-2 0,-4 1,-6 1,-1 2,-2 4,-2 2,0 3,1 4,2 0,2 1,4 1,6 0,3 -1,4 -1,6 -1,1 -3,2 -4,2zm0 -3c0,0 1,-1 1,-2 0,0 0,-2 0,-3 0,-2 0,-3 0,-4 0,0 -1,-1 -1,-1 -1,0 -1,1 -1,1 0,1 0,2 0,4 0,2 0,3 0,4 0,0 0,1 1,1zm16 -8l-3 0c-1,-1 -1,-2 -2,-2 -1,0 -1,2 -1,4 0,-1 1,-1 2,-1 1,0 2,0 3,1 1,1 1,2 1,4 0,1 0,2 -1,3 -1,1 -2,2 -4,2 -1,0 -2,0 -3,-1 0,-1 -1,-1 -1,-3 -1,-1 -1,-2 -1,-4 0,-2 0,-4 1,-6 1,-1 3,-2 4,-2 1,0 2,0 3,1 1,1 2,2 2,4zm-5 8c1,0 1,0 1,-1 0,0 0,0 0,-1 0,-1 0,-1 0,-1 0,-1 0,-1 -1,-1 0,0 -1,0 -1,1 0,0 0,0 0,1 0,1 0,1 0,1 0,1 1,1 1,1zm16 -8l-3 0c-1,-1 -1,-2 -2,-2 -1,0 -1,2 -1,4 0,-1 1,-1 2,-1 1,0 2,0 3,1 1,1 1,2 1,4 0,1 0,2 -1,3 -1,1 -2,2 -4,2 -1,0 -2,0 -2,-1 -1,-1 -2,-1 -2,-3 -1,-1 -1,-2 -1,-4 0,-2 1,-4 1,-6 1,-1 3,-2 4,-2 1,0 2,0 3,1 1,1 2,2 2,4zm-5 8c1,0 1,0 1,-1 0,0 1,0 1,-1 0,-1 -1,-1 -1,-1 0,-1 0,-1 -1,-1 0,0 -1,0 -1,1 0,0 0,0 0,1 0,1 0,1 0,1 0,1 1,1 1,1zm6 6c1,-2 2,-6 2,-9 0,-4 -1,-7 -2,-10l2 0c2,3 3,7 3,10 0,3 -1,7 -3,9l-2 0zm15 -3c-1,0 -2,-1 -3,-2 -1,-2 -2,-4 -2,-6 0,-2 1,-4 2,-6 1,-1 2,-2 3,-2 2,0 3,1 4,2 1,2 1,4 1,6 0,3 0,4 -1,6 -1,1 -2,2 -4,2zm0 -3c1,0 1,-1 1,-2 1,0 1,-2 1,-3 0,-2 0,-3 -1,-4 0,0 0,-1 -1,-1 0,0 0,1 -1,1 0,1 0,2 0,4 0,2 0,3 0,4 1,0 1,1 1,1zm16 -13l0 3c-1,1 -2,3 -3,5 0,3 -1,5 -1,7 0,0 0,0 0,1l-4 0c0,-2 1,-4 1,-6 1,-2 2,-4 3,-6l-6 0 1 -4 9 0zm6 16c-1,0 -3,-1 -4,-2 0,-2 -1,-4 -1,-6 0,-2 1,-4 2,-6 0,-1 2,-2 3,-2 2,0 3,1 4,2 1,2 1,4 1,6 0,3 0,4 -1,6 -1,1 -2,2 -4,2zm0 -3c1,0 1,-1 1,-2 0,0 0,-2 0,-3 0,-2 0,-3 0,-4 0,0 0,-1 -1,-1 0,0 -1,1 -1,1 0,1 0,2 0,4 0,2 0,3 0,4 0,0 1,1 1,1zm11 -5l0 4 -5 0 0 -4 5 0zm8 4l3 0 0 4 -10 0 0 -4 3 0 0 -7c-1,1 -2,1 -3,1l0 -3c2,-1 3,-2 4,-3l3 0 0 12zm13 0l0 4 -9 0 0 -4 2 -2c0,0 1,-1 2,-1 0,-1 1,-2 1,-2 0,-1 1,-1 1,-2 0,0 -1,-1 -1,-1 0,0 0,-1 -1,-1 -1,0 -1,1 -1,3l-3 -1c0,-1 0,-3 1,-4 1,-1 2,-1 4,-1 1,0 2,0 3,1 1,1 1,2 1,4 0,1 0,2 0,3 -1,1 -2,2 -5,4l5 0zm6 -4l0 4 -5 0 0 -4 5 0zm11 4l-2 0 0 4 -3 0 0 -4 -5 0 0 -3 5 -9 3 0 0 9 2 0 0 3zm-5 -3l0 -5 -2 5 2 0zm15 -5l-5 0 0 2c0,0 1,-1 2,-1 1,0 2,1 3,2 1,1 1,2 1,3 0,2 0,3 -1,4 -1,1 -3,2 -4,2 -1,0 -2,0 -3,-1 -1,-1 -2,-2 -2,-4l3 0c0,1 1,1 2,1 0,0 1,0 1,0 0,0 0,-1 0,-1 0,-1 0,-1 0,-2 0,0 -1,0 -1,0 -1,0 -1,0 -2,1l-3 -1 1 -9 8 0 0 4z"/>
 </g>
</svg>
